<svg version="1.1" preserveAspectRatio="none" xmlns="http://www.w3.org/2000/svg" width="500" height="500" viewBox="0 0 500 500"><rect width="100%" height="100%" fill="#101010" fill-opacity="1"/><svg viewBox="111.4204 199.9674 473.3836 119.8794" width="333" height="84.32873508925954" x="83.5px" y="207.8356px" xmlns="http://www.w3.org/2000/svg" xmlns:xlink="http://www.w3.org/1999/xlink" preserveAspectRatio="none"><defs></defs><style>.icon1 {fill:#EBEBEB;fill-opacity:1;}.icon2 {fill:#D4D4D4;fill-opacity:1;}.icon3 {fill:#A0A0A0;fill-opacity:1;}.icon3-str {stroke:#A0A0A0;stroke-opacity:1;}</style><g opacity="1" transform="rotate(0 133.5823 301.8468)">
<svg width="429.0599" height="18" x="133.5823" y="301.8468" version="1.1" preserveAspectRatio="none" viewBox="2.48 -28.32 682.68 28.64">
  <g transform="matrix(1 0 0 1 0 0)" class="icon3"><path id="id-6izo4zJp26" d="M2.88 0Q2.48 0 2.48-0.40L2.48-0.40L2.48-27.60Q2.48-28 2.88-28L2.88-28L9.44-28Q12.76-28 14.72-25.96Q16.68-23.92 16.68-20.44L16.68-20.44L16.68-7.56Q16.68-4.08 14.72-2.04Q12.76 0 9.44 0L9.44 0L2.88 0ZM6.32-3.48Q6.32-3.32 6.48-3.32L6.48-3.32L9.40-3.36Q10.92-3.36 11.84-4.54Q12.76-5.72 12.80-7.76L12.80-7.76L12.80-20.24Q12.80-22.28 11.88-23.48Q10.96-24.68 9.40-24.68L9.40-24.68L6.48-24.68Q6.32-24.68 6.32-24.52L6.32-24.52L6.32-3.48Z M44.40-25.08Q44.40-24.68 44-24.68L44-24.68L35-24.68Q34.84-24.68 34.84-24.52L34.84-24.52L34.84-15.84Q34.84-15.68 35-15.68L35-15.68L40.52-15.68Q40.92-15.68 40.92-15.28L40.92-15.28L40.92-12.76Q40.92-12.36 40.52-12.36L40.52-12.36L35-12.36Q34.84-12.36 34.84-12.20L34.84-12.20L34.84-3.48Q34.84-3.32 35-3.32L35-3.32L44-3.32Q44.40-3.32 44.40-2.92L44.40-2.92L44.40-0.40Q44.40 0 44 0L44 0L31.40 0Q31.00 0 31.00-0.40L31.00-0.40L31.00-27.60Q31.00-28 31.40-28L31.40-28L44-28Q44.40-28 44.40-27.60L44.40-27.60L44.40-25.08Z M64.64 0.32Q61.48 0.32 59.54-1.66Q57.60-3.64 57.60-6.84L57.60-6.84L57.60-7.92Q57.60-8.32 58.00-8.32L58.00-8.32L60.96-8.32Q61.36-8.32 61.36-7.92L61.36-7.92L61.36-7.04Q61.36-5.20 62.28-4.10Q63.20-3 64.64-3L64.64-3Q66.08-3 67.02-4.06Q67.96-5.12 67.96-6.84L67.96-6.84Q67.96-8 67.46-8.88Q66.96-9.76 66.14-10.46Q65.32-11.16 63.48-12.52L63.48-12.52Q61.44-14.04 60.28-15.12Q59.12-16.20 58.32-17.72Q57.52-19.24 57.52-21.28L57.52-21.28Q57.52-24.52 59.44-26.42Q61.36-28.32 64.44-28.32L64.44-28.32Q67.64-28.32 69.58-26.28Q71.52-24.24 71.52-20.92L71.52-20.92L71.52-19.92Q71.52-19.52 71.12-19.52L71.12-19.52L68.16-19.52Q67.76-19.52 67.76-19.92L67.76-19.92L67.76-21Q67.76-22.80 66.84-23.90Q65.92-25 64.44-25L64.44-25Q63.04-25 62.18-24.02Q61.32-23.04 61.32-21.28L61.32-21.28Q61.32-19.68 62.20-18.58Q63.08-17.48 65.56-15.64L65.56-15.64Q68-13.84 69.22-12.72Q70.44-11.60 71.10-10.26Q71.76-8.92 71.76-7.08L71.76-7.08Q71.76-3.72 69.78-1.70Q67.80 0.32 64.64 0.32L64.64 0.32Z M98.80-25.08Q98.80-24.68 98.40-24.68L98.40-24.68L89.40-24.68Q89.24-24.68 89.24-24.52L89.24-24.52L89.24-15.84Q89.24-15.68 89.40-15.68L89.40-15.68L94.92-15.68Q95.32-15.68 95.32-15.28L95.32-15.28L95.32-12.76Q95.32-12.36 94.92-12.36L94.92-12.36L89.40-12.36Q89.24-12.36 89.24-12.20L89.24-12.20L89.24-3.48Q89.24-3.32 89.40-3.32L89.40-3.32L98.40-3.32Q98.80-3.32 98.80-2.92L98.80-2.92L98.80-0.40Q98.80 0 98.40 0L98.40 0L85.80 0Q85.40 0 85.40-0.40L85.40-0.40L85.40-27.60Q85.40-28 85.80-28L85.80-28L98.40-28Q98.80-28 98.80-27.60L98.80-27.60L98.80-25.08Z M113.12 0Q112.72 0 112.72-0.40L112.72-0.40L112.72-27.60Q112.72-28 113.12-28L113.12-28L116.20-28Q116.52-28 116.64-27.68L116.64-27.68L123.76-10.04Q123.80-9.92 123.88-9.94Q123.96-9.96 123.96-10.08L123.96-10.08L123.96-27.60Q123.96-28 124.36-28L124.36-28L127.36-28Q127.76-28 127.76-27.60L127.76-27.60L127.76-0.40Q127.76 0 127.36 0L127.36 0L124.24 0Q123.92 0 123.80-0.32L123.80-0.32L116.68-17.96Q116.64-18.08 116.56-18.08Q116.48-18.08 116.48-17.96L116.48-17.96L116.52-0.40Q116.52 0 116.12 0L116.12 0L113.12 0Z M147.68 0Q147.32 0 147.24-0.36L147.24-0.36L141.48-27.56L141.48-27.64Q141.48-28 141.84-28L141.84-28L145.16-28Q145.56-28 145.60-27.64L145.60-27.64L149.40-6.88Q149.44-6.80 149.48-6.80Q149.52-6.80 149.56-6.88L149.56-6.88L153.28-27.64Q153.36-28 153.72-28L153.72-28L156.92-28Q157.36-28 157.28-27.56L157.28-27.56L151.52-0.36Q151.48 0 151.08 0L151.08 0L147.68 0Z M177.24 0.32Q173.96 0.32 171.96-1.68Q169.96-3.68 169.96-7L169.96-7L169.96-20.96Q169.96-24.28 171.96-26.30Q173.96-28.32 177.24-28.32L177.24-28.32Q180.56-28.32 182.58-26.30Q184.60-24.28 184.60-20.96L184.60-20.96L184.60-7Q184.60-3.68 182.58-1.68Q180.56 0.32 177.24 0.32L177.24 0.32ZM177.24-3Q178.84-3 179.80-4.06Q180.76-5.12 180.76-6.84L180.76-6.84L180.76-21.16Q180.76-22.88 179.80-23.94Q178.84-25 177.24-25L177.24-25Q175.68-25 174.74-23.94Q173.80-22.88 173.80-21.16L173.80-21.16L173.80-6.84Q173.80-5.12 174.74-4.06Q175.68-3 177.24-3L177.24-3Z M199.40 0Q199 0 199-0.40L199-0.40L199-27.60Q199-28 199.40-28L199.40-28L202.44-28Q202.84-28 202.84-27.60L202.84-27.60L202.84-3.48Q202.84-3.32 203-3.32L203-3.32L211.96-3.32Q212.36-3.32 212.36-2.92L212.36-2.92L212.36-0.40Q212.36 0 211.96 0L211.96 0L199.40 0Z M230.24 0Q229.88 0 229.80-0.36L229.80-0.36L224.04-27.56L224.04-27.64Q224.04-28 224.40-28L224.40-28L227.72-28Q228.12-28 228.16-27.64L228.16-27.64L231.96-6.88Q232-6.80 232.04-6.80Q232.08-6.80 232.12-6.88L232.12-6.88L235.84-27.64Q235.92-28 236.28-28L236.28-28L239.48-28Q239.92-28 239.84-27.56L239.84-27.56L234.08-0.36Q234.04 0 233.64 0L233.64 0L230.24 0Z M266.96-25.08Q266.96-24.68 266.56-24.68L266.56-24.68L257.56-24.68Q257.40-24.68 257.40-24.52L257.40-24.52L257.40-15.84Q257.40-15.68 257.56-15.68L257.56-15.68L263.08-15.68Q263.48-15.68 263.48-15.28L263.48-15.28L263.48-12.76Q263.48-12.36 263.08-12.36L263.08-12.36L257.56-12.36Q257.40-12.36 257.40-12.20L257.40-12.20L257.40-3.48Q257.40-3.32 257.56-3.32L257.56-3.32L266.56-3.32Q266.96-3.32 266.96-2.92L266.96-2.92L266.96-0.40Q266.96 0 266.56 0L266.56 0L253.96 0Q253.56 0 253.56-0.40L253.56-0.40L253.56-27.60Q253.56-28 253.96-28L253.96-28L266.56-28Q266.96-28 266.96-27.60L266.96-27.60L266.96-25.08Z M281.24 0Q280.84 0 280.84-0.40L280.84-0.40L280.84-27.60Q280.84-28 281.24-28L281.24-28L287.80-28Q291.12-28 293.08-25.96Q295.04-23.92 295.04-20.44L295.04-20.44L295.04-7.56Q295.04-4.08 293.08-2.04Q291.12 0 287.80 0L287.80 0L281.24 0ZM284.68-3.48Q284.68-3.32 284.84-3.32L284.84-3.32L287.76-3.36Q289.28-3.36 290.20-4.54Q291.12-5.72 291.16-7.76L291.16-7.76L291.16-20.24Q291.16-22.28 290.24-23.48Q289.32-24.68 287.76-24.68L287.76-24.68L284.84-24.68Q284.68-24.68 284.68-24.52L284.68-24.52L284.68-3.48Z M316.32 0.32Q313.04 0.32 311.04-1.68Q309.04-3.68 309.04-7L309.04-7L309.04-20.96Q309.04-24.28 311.04-26.30Q313.04-28.32 316.32-28.32L316.32-28.32Q319.64-28.32 321.66-26.30Q323.68-24.28 323.68-20.96L323.68-20.96L323.68-7Q323.68-3.68 321.66-1.68Q319.64 0.32 316.32 0.32L316.32 0.32ZM316.32-3Q317.92-3 318.88-4.06Q319.84-5.12 319.84-6.84L319.84-6.84L319.84-21.16Q319.84-22.88 318.88-23.94Q317.92-25 316.32-25L316.32-25Q314.76-25 313.82-23.94Q312.88-22.88 312.88-21.16L312.88-21.16L312.88-6.84Q312.88-5.12 313.82-4.06Q314.76-3 316.32-3L316.32-3Z M349.20 0Q348.84 0 348.72-0.32L348.72-0.32L345-12.32Q344.96-12.44 344.84-12.44L344.84-12.44L342.08-12.44Q341.92-12.44 341.92-12.28L341.92-12.28L341.92-0.40Q341.92 0 341.52 0L341.52 0L338.48 0Q338.08 0 338.08-0.40L338.08-0.40L338.08-27.64Q338.08-28.04 338.48-28.04L338.48-28.04L345.64-28.04Q347.68-28.04 349.24-27.04Q350.80-26.04 351.66-24.22Q352.52-22.40 352.52-20.08L352.52-20.08Q352.52-17.56 351.46-15.70Q350.40-13.84 348.60-13.04L348.60-13.04Q348.48-12.92 348.52-12.80L348.52-12.80L352.64-0.44L352.68-0.28Q352.68 0 352.32 0L352.32 0L349.20 0ZM342.08-24.72Q341.92-24.72 341.92-24.56L341.92-24.56L341.92-15.60Q341.92-15.44 342.08-15.44L342.08-15.44L345.04-15.44Q346.68-15.44 347.68-16.70Q348.68-17.96 348.68-20.04L348.68-20.04Q348.68-22.20 347.68-23.46Q346.68-24.72 345.04-24.72L345.04-24.72L342.08-24.72Z M388.52 0Q388.16 0 388.08-0.36L388.08-0.36L382.76-27.56L382.76-27.64Q382.76-28 383.12-28L383.12-28L386.28-28Q386.68-28 386.72-27.64L386.72-27.64L389.96-8.88Q390-8.80 390.04-8.80Q390.08-8.80 390.12-8.88L390.12-8.88L393-27.64Q393.04-28 393.40-28L393.40-28L396.08-28Q396.44-28 396.48-27.64L396.48-27.64L399.56-8.88Q399.60-8.80 399.64-8.80Q399.68-8.80 399.72-8.88L399.72-8.88L402.68-27.64Q402.76-28 403.08-28L403.08-28L406.20-28Q406.40-28 406.50-27.88Q406.60-27.76 406.56-27.56L406.56-27.56L401.52-0.36Q401.48 0 401.08 0L401.08 0L398.24 0Q397.92 0 397.84-0.36L397.84-0.36L394.80-19.28Q394.76-19.36 394.70-19.36Q394.64-19.36 394.64-19.28L394.64-19.28L391.76-0.36Q391.72 0 391.36 0L391.36 0L388.52 0Z M433.44-25.08Q433.44-24.68 433.04-24.68L433.04-24.68L424.04-24.68Q423.88-24.68 423.88-24.52L423.88-24.52L423.88-15.84Q423.88-15.68 424.04-15.68L424.04-15.68L429.56-15.68Q429.96-15.68 429.96-15.28L429.96-15.28L429.96-12.76Q429.96-12.36 429.56-12.36L429.56-12.36L424.04-12.36Q423.88-12.36 423.88-12.20L423.88-12.20L423.88-3.48Q423.88-3.32 424.04-3.32L424.04-3.32L433.04-3.32Q433.44-3.32 433.44-2.92L433.44-2.92L433.44-0.40Q433.44 0 433.04 0L433.04 0L420.44 0Q420.04 0 420.04-0.40L420.04-0.40L420.04-27.60Q420.04-28 420.44-28L420.44-28L433.04-28Q433.44-28 433.44-27.60L433.44-27.60L433.44-25.08Z M461.88-7.64Q461.88-4 459.82-2Q457.76 0 454.40 0L454.40 0L447.72 0Q447.32 0 447.32-0.40L447.32-0.40L447.32-27.60Q447.32-28 447.72-28L447.72-28L453.84-28Q457.48-28 459.54-26.10Q461.60-24.20 461.60-20.56L461.60-20.56Q461.60-16.24 458.52-14.60L458.52-14.60Q458.32-14.48 458.48-14.40L458.48-14.40Q460.08-13.44 460.98-11.72Q461.88-10 461.88-7.64L461.88-7.64ZM451.32-24.68Q451.16-24.68 451.16-24.52L451.16-24.52L451.16-16.04Q451.16-15.88 451.32-15.88L451.32-15.88L453.88-15.88Q455.76-15.88 456.80-17.02Q457.84-18.16 457.84-20.20L457.84-20.20Q457.84-22.32 456.80-23.50Q455.76-24.68 453.88-24.68L453.88-24.68L451.32-24.68ZM454.08-3.36Q455.92-3.36 456.98-4.60Q458.04-5.84 458.04-8.12L458.04-8.12Q458.04-10.44 457.00-11.74Q455.96-13.04 454.12-13.04L454.12-13.04L451.32-13.04Q451.16-13.04 451.16-12.88L451.16-12.88L451.16-3.52Q451.16-3.36 451.32-3.36L451.32-3.36L454.08-3.36Z M506.96-25.08Q506.96-24.68 506.56-24.68L506.56-24.68L497.56-24.68Q497.40-24.68 497.40-24.52L497.40-24.52L497.40-15.84Q497.40-15.68 497.56-15.68L497.56-15.68L503.08-15.68Q503.48-15.68 503.48-15.28L503.48-15.28L503.48-12.76Q503.48-12.36 503.08-12.36L503.08-12.36L497.56-12.36Q497.40-12.36 497.40-12.20L497.40-12.20L497.40-3.48Q497.40-3.32 497.56-3.32L497.56-3.32L506.56-3.32Q506.96-3.32 506.96-2.92L506.96-2.92L506.96-0.40Q506.96 0 506.56 0L506.56 0L493.96 0Q493.56 0 493.56-0.40L493.56-0.40L493.56-27.60Q493.56-28 493.96-28L493.96-28L506.56-28Q506.96-28 506.96-27.60L506.96-27.60L506.96-25.08Z M539.20 0Q538.80 0 538.80-0.40L538.80-0.40L538.80-27.60Q538.80-28 539.20-28L539.20-28L542.24-28Q542.56-28 542.68-27.68L542.68-27.68L546.76-17.96Q546.80-17.88 546.88-17.88Q546.96-17.88 547-17.96L547-17.96L551.16-27.68Q551.28-28 551.60-28L551.60-28L554.64-28Q555.04-28 555.04-27.60L555.04-27.60L555.04-0.40Q555.04 0 554.64 0L554.64 0L551.60 0Q551.20 0 551.20-0.40L551.20-0.40L551.20-18.52Q551.20-18.64 551.14-18.64Q551.08-18.64 551-18.56L551-18.56L547.28-10.64Q547.16-10.36 546.96-10.36L546.96-10.36Q546.68-10.36 546.56-10.64L546.56-10.64L542.84-18.60Q542.76-18.68 542.70-18.68Q542.64-18.68 542.64-18.56L542.64-18.56L542.64-0.40Q542.64 0 542.24 0L542.24 0L539.20 0Z M576.68 0.32Q573.40 0.32 571.40-1.68Q569.40-3.68 569.40-7L569.40-7L569.40-20.96Q569.40-24.28 571.40-26.30Q573.40-28.32 576.68-28.32L576.68-28.32Q580-28.32 582.02-26.30Q584.04-24.28 584.04-20.96L584.04-20.96L584.04-7Q584.04-3.68 582.02-1.68Q580 0.32 576.68 0.32L576.68 0.32ZM576.68-3Q578.28-3 579.24-4.06Q580.20-5.12 580.20-6.84L580.20-6.84L580.20-21.16Q580.20-22.88 579.24-23.94Q578.28-25 576.68-25L576.68-25Q575.12-25 574.18-23.94Q573.24-22.88 573.24-21.16L573.24-21.16L573.24-6.84Q573.24-5.12 574.18-4.06Q575.12-3 576.68-3L576.68-3Z M613-7.64Q613-4 610.94-2Q608.88 0 605.52 0L605.52 0L598.84 0Q598.44 0 598.44-0.40L598.44-0.40L598.44-27.60Q598.44-28 598.84-28L598.84-28L604.96-28Q608.60-28 610.66-26.10Q612.72-24.20 612.72-20.56L612.72-20.56Q612.72-16.24 609.64-14.60L609.64-14.60Q609.44-14.48 609.60-14.40L609.60-14.40Q611.20-13.44 612.10-11.72Q613-10 613-7.64L613-7.64ZM602.44-24.68Q602.28-24.68 602.28-24.52L602.28-24.52L602.28-16.04Q602.28-15.88 602.44-15.88L602.44-15.88L605-15.88Q606.88-15.88 607.92-17.02Q608.96-18.16 608.96-20.20L608.96-20.20Q608.96-22.32 607.92-23.50Q606.88-24.68 605-24.68L605-24.68L602.44-24.68ZM605.20-3.36Q607.04-3.36 608.10-4.60Q609.16-5.84 609.16-8.12L609.16-8.12Q609.16-10.44 608.12-11.74Q607.08-13.04 605.24-13.04L605.24-13.04L602.44-13.04Q602.28-13.04 602.28-12.88L602.28-12.88L602.28-3.52Q602.28-3.36 602.44-3.36L602.44-3.36L605.20-3.36Z M627.08 0Q626.68 0 626.68-0.40L626.68-0.40L626.68-27.60Q626.68-28 627.08-28L627.08-28L630.12-28Q630.52-28 630.52-27.60L630.52-27.60L630.52-0.40Q630.52 0 630.12 0L630.12 0L627.08 0Z M645.88 0Q645.48 0 645.48-0.40L645.48-0.40L645.48-27.60Q645.48-28 645.88-28L645.88-28L648.92-28Q649.32-28 649.32-27.60L649.32-27.60L649.32-3.48Q649.32-3.32 649.48-3.32L649.48-3.32L658.44-3.32Q658.84-3.32 658.84-2.92L658.84-2.92L658.84-0.40Q658.84 0 658.44 0L658.44 0L645.88 0Z M685.16-25.08Q685.16-24.68 684.76-24.68L684.76-24.68L675.76-24.68Q675.60-24.68 675.60-24.52L675.60-24.52L675.60-15.84Q675.60-15.68 675.76-15.68L675.76-15.68L681.28-15.68Q681.68-15.68 681.68-15.28L681.68-15.28L681.68-12.76Q681.68-12.36 681.28-12.36L681.28-12.36L675.76-12.36Q675.60-12.36 675.60-12.20L675.60-12.20L675.60-3.48Q675.60-3.32 675.76-3.32L675.76-3.32L684.76-3.32Q685.16-3.32 685.16-2.92L685.16-2.92L685.16-0.40Q685.16 0 684.76 0L684.76 0L672.16 0Q671.76 0 671.76-0.40L671.76-0.40L671.76-27.60Q671.76-28 672.16-28L672.16-28L684.76-28Q685.16-28 685.16-27.60L685.16-27.60L685.16-25.08Z"/></g>
</svg>
</g><g opacity="1" transform="rotate(0 305.9158 199.9674)">
<svg width="54" height="63.7589" x="305.9158" y="199.9674" version="1.1" preserveAspectRatio="none" viewBox="32.458580017089844 19.999998092651367 135.3414306640625 159.79998779296875">
  <g transform="matrix(-1 0 0 1 200.2585906982422 0)" ><g><path d="M167.5 109.2v-.5l-40.6-70c-.2-.3-.5-.5-.8-.5H94L75.4 20.3s-.1 0-.1-.1l-.1-.1c-.1 0-.2-.1-.3-.1h-.5c-.1 0-.1 0-.2.1L44.4 38.3c-.1.1-.2.1-.2.2-.2.2-.2.3-.2.4L32.5 89.7v.4c-.1.2 0 .5.1.7l41.2 70.4c0 .1.1.1.1.2.1.1.3.2.4.2H110l15.3 17.9c.1.1.2.2.3.2h.1c.1 0 .2.1.4.1h.3c.1 0 .1 0 .2-.1h.1l29.8-18.2.1-.1c.1 0 .1-.1.2-.1l.1-.1c0-.1.1-.1.1-.2v-.1l10.8-51.8c-.3.2-.3.2-.3.1zM155 159.9h-16.8l26.2-45.2-9.4 45.2zm-2.6 1.9l-23.7 14.4 8.4-14.4h15.3zM99 146.2L36.2 91l126.7 18.5L99 146.2zm-24 13.4L36.6 93.9l60.6 53.3L75 159.6zm-29.5-119l12.2 7L35.6 85l9.9-44.4zM60.4 47l4.1-6.9h28.8l67.5 64.8L60.4 47zm100.8 60.3L35.5 88.9l23.9-40.3 101.8 58.7zM58.7 46l-10.2-5.9h13.7L58.7 46zm-10.4-7.8l23.6-14.4-8.5 14.4H48.3zm116.1 72.7l-28.4 49h-25.1l-10.5-12.3 64-36.7zm-39-70.8l36.9 63.6L96 40.1h29.4zm-59.8-1.9l9.3-15.7 16.4 15.7H65.6zm12.8 121.7l20.3-11.3 9.7 11.3h-30zm56.5 1.9l-9 15.6-13.3-15.6h22.3z" data-color="1" class="icon1"></path></g></g>
</svg>
</g><g opacity="1" transform="rotate(0 111.4204 201.8468)">
<svg width="174.4954" height="60" x="111.4204" y="201.8468" version="1.1" preserveAspectRatio="none" viewBox="1.1 -36.04 104.78 36.04">
  <g transform="matrix(1 0 0 1 0 0)" class="icon1"><path id="id-D6z1nYkh5" d="M14.08 0Q13.60 0 13.56-0.44L13.56-0.44L12.80-4.64Q12.80-4.84 12.56-4.84L12.56-4.84L6.76-4.84Q6.52-4.84 6.52-4.68L6.52-4.68L5.72-0.44Q5.68 0 5.20 0L5.20 0L1.52 0Q1 0 1.12-0.52L1.12-0.52L7-27.56Q7.08-28 7.52-28L7.52-28L11.80-28Q12.24-28 12.32-27.56L12.32-27.56L18.24-0.52L18.24-0.36Q18.24 0 17.80 0L17.80 0L14.08 0ZM7.32-8.68Q7.28-8.48 7.52-8.48L7.52-8.48L11.88-8.48Q12.12-8.48 12.08-8.68L12.08-8.68L9.88-20.76Q9.84-20.88 9.76-20.88Q9.68-20.88 9.64-20.76L9.64-20.76L7.32-8.68Z M25.24 0Q25.04 0 24.90-0.14Q24.76-0.28 24.76-0.48L24.76-0.48L24.76-27.52Q24.76-27.72 24.90-27.86Q25.04-28 25.24-28L25.24-28L29.08-28Q29.52-28 29.64-27.64L29.64-27.64L35.84-11.36Q35.92-11.24 36-11.24Q36.08-11.24 36.08-11.40L36.08-11.40L36.08-27.52Q36.08-27.72 36.22-27.86Q36.36-28 36.56-28L36.56-28L40.20-28Q40.40-28 40.54-27.86Q40.68-27.72 40.68-27.52L40.68-27.52L40.68-0.48Q40.68-0.28 40.54-0.14Q40.40 0 40.20 0L40.20 0L36.32 0Q35.88 0 35.76-0.36L35.76-0.36L29.52-16.68Q29.48-16.80 29.38-16.78Q29.28-16.76 29.28-16.64L29.28-16.64L29.32-0.48Q29.32-0.28 29.18-0.14Q29.04 0 28.84 0L28.84 0L25.24 0Z M48.68 0Q48.48 0 48.34-0.14Q48.20-0.28 48.20-0.48L48.20-0.48L48.20-27.52Q48.20-27.72 48.34-27.86Q48.48-28 48.68-28L48.68-28L55.52-28Q58.96-28 61.02-25.92Q63.08-23.84 63.08-20.36L63.08-20.36L63.08-7.64Q63.08-4.16 61.02-2.08Q58.96 0 55.52 0L55.52 0L48.68 0ZM52.84-4.20Q52.84-4 53.04-4L53.04-4L55.44-4.04Q56.76-4.04 57.58-5.10Q58.40-6.16 58.44-7.92L58.44-7.92L58.44-20.08Q58.44-21.88 57.62-22.94Q56.80-24 55.40-24L55.40-24L53.04-24Q52.84-24 52.84-23.80L52.84-23.80L52.84-4.20Z M81.36 0Q80.96 0 80.84-0.40L80.84-0.40L77.40-11.92Q77.32-12.08 77.20-12.08L77.20-12.08L75.12-12.08Q74.92-12.08 74.92-11.88L74.92-11.88L74.92-0.48Q74.92-0.28 74.78-0.14Q74.64 0 74.44 0L74.44 0L70.76 0Q70.56 0 70.42-0.14Q70.28-0.28 70.28-0.48L70.28-0.48L70.28-27.56Q70.28-27.76 70.42-27.90Q70.56-28.04 70.76-28.04L70.76-28.04L78.28-28.04Q80.40-28.04 82.02-27.02Q83.64-26 84.54-24.14Q85.44-22.28 85.44-19.88L85.44-19.88Q85.44-17.40 84.48-15.58Q83.52-13.76 81.80-12.84L81.80-12.84Q81.64-12.80 81.68-12.60L81.68-12.60L85.60-0.56Q85.64-0.48 85.64-0.36L85.64-0.36Q85.64 0 85.20 0L85.20 0L81.36 0ZM75.12-24.04Q74.92-24.04 74.92-23.84L74.92-23.84L74.92-15.88Q74.92-15.68 75.12-15.68L75.12-15.68L77.56-15.68Q79-15.68 79.90-16.80Q80.80-17.92 80.80-19.80L80.80-19.80Q80.80-21.76 79.90-22.90Q79-24.04 77.56-24.04L77.56-24.04L75.12-24.04Z M105.88-24.48Q105.88-24.28 105.74-24.14Q105.60-24 105.40-24L105.40-24L96.76-24Q96.56-24 96.56-23.80L96.56-23.80L96.56-16.24Q96.56-16.04 96.76-16.04L96.76-16.04L101.88-16.04Q102.08-16.04 102.22-15.90Q102.36-15.76 102.36-15.56L102.36-15.56L102.36-12.48Q102.36-12.28 102.22-12.14Q102.08-12 101.88-12L101.88-12L96.76-12Q96.56-12 96.56-11.80L96.56-11.80L96.56-4.20Q96.56-4 96.76-4L96.76-4L105.40-4Q105.60-4 105.74-3.86Q105.88-3.72 105.88-3.52L105.88-3.52L105.88-0.48Q105.88-0.28 105.74-0.14Q105.60 0 105.40 0L105.40 0L92.40 0Q92.20 0 92.06-0.14Q91.92-0.28 91.92-0.48L91.92-0.48L91.92-27.52Q91.92-27.72 92.06-27.86Q92.20-28 92.40-28L92.40-28L105.40-28Q105.60-28 105.74-27.86Q105.88-27.72 105.88-27.52L105.88-27.52L105.88-24.48ZM96.84-31.04Q96.56-31.04 96.44-31.20Q96.32-31.36 96.48-31.60L96.48-31.60L98.84-35.72Q99-36.04 99.44-36.04L99.44-36.04L102.80-36.04Q103.12-36.04 103.20-35.86Q103.28-35.68 103.12-35.44L103.12-35.44L100.16-31.32Q99.96-31.04 99.60-31.04L99.60-31.04L96.84-31.04Z"/></g>
</svg>
</g><g opacity="1" transform="rotate(0 379.9158 201.8468)">
<svg width="204.8882" height="60" x="379.9158" y="201.8468" version="1.1" preserveAspectRatio="none" viewBox="2.2 -28.32 97.8 28.64">
  <g transform="matrix(1 0 0 1 0 0)" class="icon1"><path id="id-a8WAvAAzme5" d="M2.68 0Q2.48 0 2.34-0.14Q2.20-0.28 2.20-0.48L2.20-0.48L2.20-27.52Q2.20-27.72 2.34-27.86Q2.48-28 2.68-28L2.68-28L6.52-28Q6.96-28 7.08-27.64L7.08-27.64L13.28-11.36Q13.36-11.24 13.44-11.24Q13.52-11.24 13.52-11.40L13.52-11.40L13.52-27.52Q13.52-27.72 13.66-27.86Q13.80-28 14-28L14-28L17.64-28Q17.84-28 17.98-27.86Q18.12-27.72 18.12-27.52L18.12-27.52L18.12-0.48Q18.12-0.28 17.98-0.14Q17.84 0 17.64 0L17.64 0L13.76 0Q13.32 0 13.20-0.36L13.20-0.36L6.96-16.68Q6.92-16.80 6.82-16.78Q6.72-16.76 6.72-16.64L6.72-16.64L6.76-0.48Q6.76-0.28 6.62-0.14Q6.48 0 6.28 0L6.28 0L2.68 0Z M31.60 0.32Q28.16 0.32 26.06-1.76Q23.96-3.84 23.96-7.28L23.96-7.28L23.96-20.72Q23.96-24.16 26.06-26.24Q28.16-28.32 31.60-28.32L31.60-28.32Q35.04-28.32 37.16-26.24Q39.28-24.16 39.28-20.72L39.28-20.72L39.28-7.28Q39.28-3.84 37.16-1.76Q35.04 0.32 31.60 0.32L31.60 0.32ZM31.60-3.68Q32.96-3.68 33.80-4.62Q34.64-5.56 34.64-7.08L34.64-7.08L34.64-20.92Q34.64-22.44 33.80-23.38Q32.96-24.32 31.60-24.32L31.60-24.32Q30.24-24.32 29.42-23.38Q28.60-22.44 28.60-20.92L28.60-20.92L28.60-7.08Q28.60-5.56 29.42-4.62Q30.24-3.68 31.60-3.68L31.60-3.68Z M60.36-7.68Q60.36-4 58.22-2Q56.08 0 52.64 0L52.64 0L45.60 0Q45.40 0 45.26-0.14Q45.12-0.28 45.12-0.48L45.12-0.48L45.12-27.52Q45.12-27.72 45.26-27.86Q45.40-28 45.60-28L45.60-28L51.92-28Q55.72-28 57.88-26.08Q60.04-24.16 60.04-20.48L60.04-20.48Q60.04-16.36 57.12-14.60L57.12-14.60Q56.92-14.48 57.04-14.36L57.04-14.36Q58.60-13.36 59.48-11.68Q60.36-10 60.36-7.68L60.36-7.68ZM49.96-24Q49.76-24 49.76-23.80L49.76-23.80L49.76-16.36Q49.76-16.16 49.96-16.16L49.96-16.16L52-16.16Q53.64-16.16 54.56-17.16Q55.48-18.16 55.48-20L55.48-20Q55.48-21.92 54.56-22.96Q53.64-24 52-24L52-24L49.96-24ZM52.28-4.04Q53.88-4.04 54.80-5.16Q55.72-6.28 55.72-8.32L55.72-8.32Q55.72-10.40 54.80-11.58Q53.88-12.76 52.28-12.76L52.28-12.76L49.96-12.76Q49.76-12.76 49.76-12.56L49.76-12.56L49.76-4.24Q49.76-4.04 49.96-4.04L49.96-4.04L52.28-4.04Z M76.68 0Q76.28 0 76.16-0.40L76.16-0.40L72.72-11.92Q72.64-12.08 72.52-12.08L72.52-12.08L70.44-12.08Q70.24-12.08 70.24-11.88L70.24-11.88L70.24-0.48Q70.24-0.28 70.10-0.14Q69.96 0 69.76 0L69.76 0L66.08 0Q65.88 0 65.74-0.14Q65.60-0.28 65.60-0.48L65.60-0.48L65.60-27.56Q65.60-27.76 65.74-27.90Q65.88-28.04 66.08-28.04L66.08-28.04L73.60-28.04Q75.72-28.04 77.34-27.02Q78.96-26 79.86-24.14Q80.76-22.28 80.76-19.88L80.76-19.88Q80.76-17.40 79.80-15.58Q78.84-13.76 77.12-12.84L77.12-12.84Q76.96-12.80 77-12.60L77-12.60L80.92-0.56Q80.96-0.48 80.96-0.36L80.96-0.36Q80.96 0 80.52 0L80.52 0L76.68 0ZM70.44-24.04Q70.24-24.04 70.24-23.84L70.24-23.84L70.24-15.88Q70.24-15.68 70.44-15.68L70.44-15.68L72.88-15.68Q74.32-15.68 75.22-16.80Q76.12-17.92 76.12-19.80L76.12-19.80Q76.12-21.76 75.22-22.90Q74.32-24.04 72.88-24.04L72.88-24.04L70.44-24.04Z M100-24.48Q100-24.28 99.86-24.14Q99.72-24 99.52-24L99.52-24L90.88-24Q90.68-24 90.68-23.80L90.68-23.80L90.68-16.24Q90.68-16.04 90.88-16.04L90.88-16.04L96-16.04Q96.20-16.04 96.34-15.90Q96.48-15.76 96.48-15.56L96.48-15.56L96.48-12.48Q96.48-12.28 96.34-12.14Q96.20-12 96-12L96-12L90.88-12Q90.68-12 90.68-11.80L90.68-11.80L90.68-4.20Q90.68-4 90.88-4L90.88-4L99.52-4Q99.72-4 99.86-3.86Q100-3.72 100-3.52L100-3.52L100-0.48Q100-0.28 99.86-0.14Q99.72 0 99.52 0L99.52 0L86.52 0Q86.32 0 86.18-0.14Q86.04-0.28 86.04-0.48L86.04-0.48L86.04-27.52Q86.04-27.72 86.18-27.86Q86.32-28 86.52-28L86.52-28L99.52-28Q99.72-28 99.86-27.86Q100-27.72 100-27.52L100-27.52L100-24.48Z"/></g>
</svg>
</g></svg></svg>