<svg version="1.1" preserveAspectRatio="none" xmlns="http://www.w3.org/2000/svg" width="500" height="500" viewBox="0 0 500 500"><rect width="100%" height="100%" fill="#000000" fill-opacity="1"/><svg viewBox="52.7498 157.3879 395.2214 186" width="333" height="156.71722229616108" x="83.5px" y="171.6414px" xmlns="http://www.w3.org/2000/svg" xmlns:xlink="http://www.w3.org/1999/xlink" preserveAspectRatio="none"><defs></defs><style>.companyName {fill:#DDDDDD;fill-opacity:1;}.icon3 {fill:#28AABC;fill-opacity:1;}.icon3-str {stroke:#28AABC;stroke-opacity:1;}.shape {fill:#D728CA;fill-opacity:1;}.text {fill:#DDDDDD;fill-opacity:1;}</style><g opacity="1" transform="rotate(0 181.9202 161.3879)">
<svg width="140.8806" height="70" x="181.9202" y="161.3879" version="1.1" preserveAspectRatio="none" viewBox="0.8 -25.32 50.96000000000001 25.32">
  <g transform="matrix(1 0 0 1 0 0)" class="icon3"><path id="id-IechDY4gX2" d="M22.96-1.20Q23.08-0.96 23.08-0.76L23.08-0.76Q23.08-0.32 22.52-0.08L22.52-0.08Q22.28 0 22.12 0L22.12 0Q21.68 0 21.44-0.52L21.44-0.52L18.60-7.20Q18.48-7.16 18.20-7.16L18.20-7.16L5.60-7.16Q5.40-7.16 5.32-7.20L5.32-7.20L2.44-0.52Q2.20 0 1.72 0L1.72 0Q1.64 0 1.32-0.08L1.32-0.08Q0.80-0.32 0.80-0.80L0.80-0.80Q0.80-0.88 0.88-1.20L0.88-1.20L10.92-24.68Q11.16-25.32 11.88-25.32L11.88-25.32L12-25.32Q12.68-25.32 12.96-24.68L12.96-24.68L22.96-1.20ZM12-22.68L6.04-8.84L17.88-8.84L12-22.68Z M50.92-25.32Q51.76-25.32 51.76-24.48L51.76-24.48L51.76-0.84Q51.76 0 50.92 0L50.92 0Q50.48 0 50.04-0.48L50.04-0.48L33.16-22.12L33.16-0.84Q33.16 0 32.32 0L32.32 0Q31.48 0 31.48-0.84L31.48-0.84L31.48-24.48Q31.48-25.32 32.32-25.32L32.32-25.32Q32.80-25.32 33.20-24.84L33.20-24.84L50.08-3.20L50.08-24.48Q50.08-25.32 50.92-25.32L50.92-25.32Z"/></g>
</svg>
</g><g opacity="1" transform="rotate(0 177.9202 157.3879)">
<svg width="140.8806" height="70" x="177.9202" y="157.3879" version="1.1" preserveAspectRatio="none" viewBox="0.8 -25.32 50.96000000000001 25.32">
  <g transform="matrix(1 0 0 1 0 0)" class="shape"><path id="id-p1tucruSh2" d="M22.96-1.20Q23.08-0.96 23.08-0.76L23.08-0.76Q23.08-0.32 22.52-0.08L22.52-0.08Q22.28 0 22.12 0L22.12 0Q21.68 0 21.44-0.52L21.44-0.52L18.60-7.20Q18.48-7.16 18.20-7.16L18.20-7.16L5.60-7.16Q5.40-7.16 5.32-7.20L5.32-7.20L2.44-0.52Q2.20 0 1.72 0L1.72 0Q1.64 0 1.32-0.08L1.32-0.08Q0.80-0.32 0.80-0.80L0.80-0.80Q0.80-0.88 0.88-1.20L0.88-1.20L10.92-24.68Q11.16-25.32 11.88-25.32L11.88-25.32L12-25.32Q12.68-25.32 12.96-24.68L12.96-24.68L22.96-1.20ZM12-22.68L6.04-8.84L17.88-8.84L12-22.68Z M50.92-25.32Q51.76-25.32 51.76-24.48L51.76-24.48L51.76-0.84Q51.76 0 50.92 0L50.92 0Q50.48 0 50.04-0.48L50.04-0.48L33.16-22.12L33.16-0.84Q33.16 0 32.32 0L32.32 0Q31.48 0 31.48-0.84L31.48-0.84L31.48-24.48Q31.48-25.32 32.32-25.32L32.32-25.32Q32.80-25.32 33.20-24.84L33.20-24.84L50.08-3.20L50.08-24.48Q50.08-25.32 50.92-25.32L50.92-25.32Z"/></g>
</svg>
</g><g opacity="1" transform="rotate(0 179.9195 159.3879)">
<svg width="140.882" height="70" x="179.9195" y="159.3879" version="1.1" preserveAspectRatio="none" viewBox="0.8 -25.32 50.96000000000001 25.32">
  <g transform="matrix(1 0 0 1 0 0)" class="companyName"><path id="id-zm6CZq_Ug2" d="M22.96-1.20Q23.08-0.96 23.08-0.76L23.08-0.76Q23.08-0.32 22.52-0.08L22.52-0.08Q22.28 0 22.12 0L22.12 0Q21.68 0 21.44-0.52L21.44-0.52L18.60-7.20Q18.48-7.16 18.20-7.16L18.20-7.16L5.60-7.16Q5.40-7.16 5.32-7.20L5.32-7.20L2.44-0.52Q2.20 0 1.72 0L1.72 0Q1.64 0 1.32-0.08L1.32-0.08Q0.80-0.32 0.80-0.80L0.80-0.80Q0.80-0.88 0.88-1.20L0.88-1.20L10.92-24.68Q11.16-25.32 11.88-25.32L11.88-25.32L12-25.32Q12.68-25.32 12.96-24.68L12.96-24.68L22.96-1.20ZM12-22.68L6.04-8.84L17.88-8.84L12-22.68Z M50.92-25.32Q51.76-25.32 51.76-24.48L51.76-24.48L51.76-0.84Q51.76 0 50.92 0L50.92 0Q50.48 0 50.04-0.48L50.04-0.48L33.16-22.12L33.16-0.84Q33.16 0 32.32 0L32.32 0Q31.48 0 31.48-0.84L31.48-0.84L31.48-24.48Q31.48-25.32 32.32-25.32L32.32-25.32Q32.80-25.32 33.20-24.84L33.20-24.84L50.08-3.20L50.08-24.48Q50.08-25.32 50.92-25.32L50.92-25.32Z"/></g>
</svg>
</g><g opacity="1" transform="rotate(0 52.7498 327.3879)">
<svg width="395.2214" height="16" x="52.7498" y="327.3879" version="1.1" preserveAspectRatio="none" viewBox="3.72 -27.72 684.7199999999999 27.72">
  <g transform="matrix(1 0 0 1 0 0)" class="text"><path id="id-6izo4zJp26" d="M4.76 0Q3.72 0 3.72-1.04L3.72-1.04L3.72-24.72Q3.72-25.76 4.76-25.76L4.76-25.76L14.40-25.76Q19.36-25.76 21.64-23.48Q23.92-21.20 23.92-16.24L23.92-16.24L23.92-9.52Q23.92-4.56 21.66-2.28Q19.40 0 14.40 0L14.40 0L4.76 0ZM5.80-2.08L14.40-2.08Q17.16-2.08 18.78-2.80Q20.40-3.52 21.12-5.14Q21.84-6.76 21.84-9.52L21.84-9.52L21.84-16.24Q21.84-19 21.12-20.62Q20.40-22.24 18.78-22.96Q17.16-23.68 14.40-23.68L14.40-23.68L5.80-23.68L5.80-2.08Z M52.96-8.64L38.40-8.64L38.40-7.16Q38.40-4.32 39.54-3.20Q40.68-2.08 43.52-2.08L43.52-2.08L46.80-2.08Q49.36-2.08 50.50-2.74Q51.64-3.40 51.84-5L51.84-5Q52.04-6 52.92-6L52.92-6Q53.48-6 53.74-5.72Q54-5.44 53.92-4.92L53.92-4.92Q53.64-2.40 51.90-1.20Q50.16 0 46.80 0L46.80 0L43.52 0Q39.80 0 38.06-1.72Q36.32-3.44 36.32-7.16L36.32-7.16L36.32-11.68Q36.32-15.44 38.06-17.18Q39.80-18.92 43.52-18.88L43.52-18.88L46.80-18.88Q50.52-18.88 52.26-17.14Q54-15.40 54-11.68L54-11.68L54-9.68Q54-8.64 52.96-8.64L52.96-8.64ZM38.40-11.68L38.40-10.72L51.92-10.72L51.92-11.68Q51.92-14.56 50.80-15.68Q49.68-16.80 46.80-16.80L46.80-16.80L43.52-16.80Q40.64-16.84 39.52-15.72Q38.40-14.60 38.40-11.68L38.40-11.68Z M71.04-0.04Q68.60-0.04 67.30-1.08Q66-2.12 65.76-4.28L65.76-4.28Q65.72-4.80 65.98-5.10Q66.24-5.40 66.76-5.40L66.76-5.40Q67.24-5.40 67.50-5.14Q67.76-4.88 67.84-4.36L67.84-4.36Q68-3.12 68.74-2.62Q69.48-2.12 71.04-2.12L71.04-2.12L77.60-2.12Q79.48-2.12 80.18-2.82Q80.88-3.52 80.88-5.40L80.88-5.40Q80.88-7.28 80.18-7.98Q79.48-8.68 77.60-8.68L77.60-8.68L71.16-8.68Q68.52-8.68 67.26-9.92Q66-11.16 66-13.76L66-13.76Q66-16.40 67.26-17.66Q68.52-18.92 71.16-18.92L71.16-18.92L77.40-18.92Q81.96-18.92 82.44-14.92L82.44-14.92Q82.48-14.40 82.22-14.12Q81.96-13.84 81.44-13.84L81.44-13.84Q80.96-13.84 80.70-14.08Q80.44-14.32 80.32-14.84L80.32-14.84Q80.16-15.96 79.50-16.40Q78.84-16.84 77.40-16.84L77.40-16.84L71.16-16.84Q69.40-16.84 68.74-16.18Q68.08-15.52 68.08-13.76L68.08-13.76Q68.08-12.04 68.74-11.40Q69.40-10.76 71.16-10.76L71.16-10.76L77.60-10.76Q80.36-10.76 81.66-9.44Q82.96-8.12 82.96-5.40L82.96-5.40Q82.96-2.64 81.66-1.34Q80.36-0.04 77.60-0.04L77.60-0.04L71.04-0.04Z M111.36-8.64L96.80-8.64L96.80-7.16Q96.80-4.32 97.94-3.20Q99.08-2.08 101.92-2.08L101.92-2.08L105.20-2.08Q107.76-2.08 108.90-2.74Q110.04-3.40 110.24-5L110.24-5Q110.44-6 111.32-6L111.32-6Q111.88-6 112.14-5.72Q112.40-5.44 112.32-4.92L112.32-4.92Q112.04-2.40 110.30-1.20Q108.56 0 105.20 0L105.20 0L101.92 0Q98.20 0 96.46-1.72Q94.72-3.44 94.72-7.16L94.72-7.16L94.72-11.68Q94.72-15.44 96.46-17.18Q98.20-18.92 101.92-18.88L101.92-18.88L105.20-18.88Q108.92-18.88 110.66-17.14Q112.40-15.40 112.40-11.68L112.40-11.68L112.40-9.68Q112.40-8.64 111.36-8.64L111.36-8.64ZM96.80-11.68L96.80-10.72L110.32-10.72L110.32-11.68Q110.32-14.56 109.20-15.68Q108.08-16.80 105.20-16.80L105.20-16.80L101.92-16.80Q99.04-16.84 97.92-15.72Q96.80-14.60 96.80-11.68L96.80-11.68Z M135.40-18.88Q139.16-18.88 140.88-17.14Q142.60-15.40 142.60-11.68L142.60-11.68L142.60-1.04Q142.60 0 141.56 0L141.56 0Q140.52 0 140.52-1.04L140.52-1.04L140.52-11.68Q140.52-14.56 139.40-15.68Q138.28-16.80 135.40-16.80L135.40-16.80L134.28-16.80Q131.12-16.80 129.36-15.80Q127.60-14.80 127.44-12.84L127.44-12.84Q127.44-12.64 127.40-12.56L127.40-12.56L127.40-1.04Q127.40 0 126.36 0L126.36 0Q125.32 0 125.32-1.04L125.32-1.04L125.32-17.84Q125.32-18.88 126.36-18.88L126.36-18.88Q127.40-18.88 127.40-17.84L127.40-17.84L127.40-15.92Q129.32-18.88 134.28-18.88L134.28-18.88L135.40-18.88Z M169.96-18.76Q170.60-18.52 170.60-17.92L170.60-17.92Q170.60-17.64 170.48-17.40L170.48-17.40L162.56-0.80Q162.32-0.36 162.02-0.18Q161.72 0 161.28 0L161.28 0Q160.40 0 160.04-0.80L160.04-0.80L152.60-17.44Q152.48-17.68 152.48-17.92L152.48-17.92Q152.48-18.52 153.16-18.76L153.16-18.76Q153.40-18.88 153.68-18.88L153.68-18.88Q154.28-18.88 154.52-18.24L154.52-18.24L161.32-3.04L168.56-18.24Q168.84-18.88 169.44-18.88L169.44-18.88Q169.68-18.88 169.96-18.76L169.96-18.76Z M187.16 0Q183.40 0 181.68-1.72Q179.96-3.44 179.96-7.16L179.96-7.16L179.96-11.68Q179.96-15.48 181.68-17.20Q183.40-18.92 187.16-18.88L187.16-18.88L190.44-18.88Q194.20-18.88 195.92-17.16Q197.64-15.44 197.64-11.68L197.64-11.68L197.64-7.20Q197.64-3.44 195.92-1.72Q194.20 0 190.44 0L190.44 0L187.16 0ZM187.16-2.08L190.44-2.08Q193.28-2.08 194.42-3.22Q195.56-4.36 195.56-7.20L195.56-7.20L195.56-11.68Q195.56-14.52 194.42-15.66Q193.28-16.80 190.44-16.80L190.44-16.80L187.16-16.80Q184.32-16.84 183.18-15.70Q182.04-14.56 182.04-11.68L182.04-11.68L182.04-7.16Q182.04-4.32 183.18-3.20Q184.32-2.08 187.16-2.08L187.16-2.08Z M216.08 0Q213.24 0 211.90-1.32Q210.56-2.64 210.56-5.44L210.56-5.44L210.56-26.68Q210.56-27.72 211.60-27.72L211.60-27.72Q212.64-27.72 212.64-26.68L212.64-26.68L212.64-5.44Q212.64-3.48 213.36-2.78Q214.08-2.08 216.04-2.08L216.04-2.08Q217.12-2.08 217.12-1.04L217.12-1.04Q217.12-0.52 216.84-0.26Q216.56 0 216.08 0L216.08 0Z M242.84-18.76Q243.48-18.52 243.48-17.92L243.48-17.92Q243.48-17.64 243.36-17.40L243.36-17.40L235.44-0.80Q235.20-0.36 234.90-0.18Q234.60 0 234.16 0L234.16 0Q233.28 0 232.92-0.80L232.92-0.80L225.48-17.44Q225.36-17.68 225.36-17.92L225.36-17.92Q225.36-18.52 226.04-18.76L226.04-18.76Q226.28-18.88 226.56-18.88L226.56-18.88Q227.16-18.88 227.40-18.24L227.40-18.24L234.20-3.04L241.44-18.24Q241.72-18.88 242.32-18.88L242.32-18.88Q242.56-18.88 242.84-18.76L242.84-18.76Z M269.48-8.64L254.92-8.64L254.92-7.16Q254.92-4.32 256.06-3.20Q257.20-2.08 260.04-2.08L260.04-2.08L263.32-2.08Q265.88-2.08 267.02-2.74Q268.16-3.40 268.36-5L268.36-5Q268.56-6 269.44-6L269.44-6Q270-6 270.26-5.72Q270.52-5.44 270.44-4.92L270.44-4.92Q270.16-2.40 268.42-1.20Q266.68 0 263.32 0L263.32 0L260.04 0Q256.32 0 254.58-1.72Q252.84-3.44 252.84-7.16L252.84-7.16L252.84-11.68Q252.84-15.44 254.58-17.18Q256.32-18.92 260.04-18.88L260.04-18.88L263.32-18.88Q267.04-18.88 268.78-17.14Q270.52-15.40 270.52-11.68L270.52-11.68L270.52-9.68Q270.52-8.64 269.48-8.64L269.48-8.64ZM254.92-11.68L254.92-10.72L268.44-10.72L268.44-11.68Q268.44-14.56 267.32-15.68Q266.20-16.80 263.32-16.80L263.32-16.80L260.04-16.80Q257.16-16.84 256.04-15.72Q254.92-14.60 254.92-11.68L254.92-11.68Z M299.56-27.72Q300.60-27.72 300.60-26.68L300.60-26.68L300.60-1.04Q300.60 0 299.56 0L299.56 0Q298.52 0 298.52-1.04L298.52-1.04L298.52-2.72Q297.64-1.36 295.96-0.68Q294.28 0 291.64 0L291.64 0L290.12 0Q286.40 0 284.66-1.74Q282.92-3.48 282.92-7.20L282.92-7.20L282.92-11.68Q282.92-15.40 284.66-17.14Q286.40-18.88 290.12-18.88L290.12-18.88L298.52-18.88L298.52-26.68Q298.52-27.72 299.56-27.72L299.56-27.72ZM291.64-2.08Q294.84-2.08 296.68-3.10Q298.52-4.12 298.52-6.04L298.52-6.04L298.52-16.80L290.12-16.80Q287.24-16.80 286.12-15.66Q285.00-14.52 285.00-11.68L285.00-11.68L285.00-7.20Q285.00-4.32 286.14-3.20Q287.28-2.08 290.12-2.08L290.12-2.08L291.64-2.08Z M320.36 0Q316.60 0 314.88-1.72Q313.16-3.44 313.16-7.16L313.16-7.16L313.16-11.68Q313.16-15.48 314.88-17.20Q316.60-18.92 320.36-18.88L320.36-18.88L323.64-18.88Q327.40-18.88 329.12-17.16Q330.84-15.44 330.84-11.68L330.84-11.68L330.84-7.20Q330.84-3.44 329.12-1.72Q327.40 0 323.64 0L323.64 0L320.36 0ZM320.36-2.08L323.64-2.08Q326.48-2.08 327.62-3.22Q328.76-4.36 328.76-7.20L328.76-7.20L328.76-11.68Q328.76-14.52 327.62-15.66Q326.48-16.80 323.64-16.80L323.64-16.80L320.36-16.80Q317.52-16.84 316.38-15.70Q315.24-14.56 315.24-11.68L315.24-11.68L315.24-7.16Q315.24-4.32 316.38-3.20Q317.52-2.08 320.36-2.08L320.36-2.08Z M353.56-18.88Q354.60-18.88 354.60-17.84L354.60-17.84Q354.60-16.80 353.56-16.80L353.56-16.80Q349.96-16.80 348.00-15.16Q346.04-13.52 345.88-10.48L345.88-10.48Q345.88-10.28 345.84-10.20L345.84-10.20L345.84-1.04Q345.84 0 344.80 0L344.80 0Q343.76 0 343.76-1.04L343.76-1.04L343.76-17.84Q343.76-18.88 344.80-18.88L344.80-18.88Q345.84-18.88 345.84-17.84L345.84-17.84L345.84-14.64Q346.88-16.68 348.86-17.78Q350.84-18.88 353.56-18.88L353.56-18.88Z M409.60-25.72Q410.16-25.72 410.44-25.46Q410.72-25.20 410.72-24.80L410.72-24.80Q410.72-24.68 410.64-24.36L410.64-24.36L402.96-0.80Q402.72 0 401.96 0L401.96 0L401.76 0Q400.96 0 400.72-0.80L400.72-0.80L394.16-21.96L387.56-0.80Q387.40-0.40 387.18-0.20Q386.96 0 386.52 0L386.52 0L386.32 0Q385.60 0 385.36-0.80L385.36-0.80L377.68-24.36Q377.60-24.60 377.60-24.76L377.60-24.76Q377.60-25.12 377.84-25.40Q378.08-25.68 378.52-25.72L378.52-25.72L378.72-25.72Q379.48-25.72 379.64-25L379.64-25L386.52-4.04L392.96-24.96Q393.20-25.76 394.04-25.76L394.04-25.76L394.32-25.76Q395.12-25.76 395.36-24.96L395.36-24.96L401.84-3.96L408.68-25Q408.92-25.72 409.60-25.72L409.60-25.72Z M434.32-8.64L419.76-8.64L419.76-7.16Q419.76-4.32 420.90-3.20Q422.04-2.08 424.88-2.08L424.88-2.08L428.16-2.08Q430.72-2.08 431.86-2.74Q433.00-3.40 433.20-5L433.20-5Q433.40-6 434.28-6L434.28-6Q434.84-6 435.10-5.72Q435.36-5.44 435.28-4.92L435.28-4.92Q435.00-2.40 433.26-1.20Q431.52 0 428.16 0L428.16 0L424.88 0Q421.16 0 419.42-1.72Q417.68-3.44 417.68-7.16L417.68-7.16L417.68-11.68Q417.68-15.44 419.42-17.18Q421.16-18.92 424.88-18.88L424.88-18.88L428.16-18.88Q431.88-18.88 433.62-17.14Q435.36-15.40 435.36-11.68L435.36-11.68L435.36-9.68Q435.36-8.64 434.32-8.64L434.32-8.64ZM419.76-11.68L419.76-10.72L433.28-10.72L433.28-11.68Q433.28-14.56 432.16-15.68Q431.04-16.80 428.16-16.80L428.16-16.80L424.88-16.80Q422.00-16.84 420.88-15.72Q419.76-14.60 419.76-11.68L419.76-11.68Z M458.76-18.92Q462.52-18.92 464.24-17.18Q465.96-15.44 465.96-11.72L465.96-11.72L465.96-7.20Q465.96-3.48 464.24-1.74Q462.52 0 458.76 0L458.76 0L457.24 0Q452.20 0 450.36-2.76L450.36-2.76L450.36-1.04Q450.36 0 449.32 0L449.32 0Q448.28 0 448.28-1.04L448.28-1.04L448.28-26.68Q448.28-27.72 449.32-27.72L449.32-27.72Q450.36-27.72 450.36-26.68L450.36-26.68L450.36-16.12Q452.20-18.92 457.24-18.92L457.24-18.92L458.76-18.92ZM463.88-7.20L463.88-11.72Q463.88-14.56 462.76-15.70Q461.64-16.84 458.76-16.84L458.76-16.84L457.24-16.84Q454.04-16.84 452.20-15.82Q450.36-14.80 450.36-12.84L450.36-12.84L450.36-6.24L450.36-6.04Q450.36-4.12 452.20-3.10Q454.04-2.08 457.24-2.08L457.24-2.08L458.76-2.08Q461.64-2.08 462.76-3.22Q463.88-4.36 463.88-7.20L463.88-7.20Z M511.00-8.64L496.44-8.64L496.44-7.16Q496.44-4.32 497.58-3.20Q498.72-2.08 501.56-2.08L501.56-2.08L504.84-2.08Q507.40-2.08 508.54-2.74Q509.68-3.40 509.88-5L509.88-5Q510.08-6 510.96-6L510.96-6Q511.52-6 511.78-5.72Q512.04-5.44 511.96-4.92L511.96-4.92Q511.68-2.40 509.94-1.20Q508.20 0 504.84 0L504.84 0L501.56 0Q497.84 0 496.10-1.72Q494.36-3.44 494.36-7.16L494.36-7.16L494.36-11.68Q494.36-15.44 496.10-17.18Q497.84-18.92 501.56-18.88L501.56-18.88L504.84-18.88Q508.56-18.88 510.30-17.14Q512.04-15.40 512.04-11.68L512.04-11.68L512.04-9.68Q512.04-8.64 511.00-8.64L511.00-8.64ZM496.44-11.68L496.44-10.72L509.96-10.72L509.96-11.68Q509.96-14.56 508.84-15.68Q507.72-16.80 504.84-16.80L504.84-16.80L501.56-16.80Q498.68-16.84 497.56-15.72Q496.44-14.60 496.44-11.68L496.44-11.68Z M563.92-25.76Q564.84-25.76 564.84-24.72L564.84-24.72L564.84-1.04Q564.84 0 563.80 0L563.80 0Q562.76 0 562.76-1.04L562.76-1.04L562.76-21.44L554.12-8.32Q553.72-7.64 552.88-7.64L552.88-7.64Q552.16-7.64 551.72-8.32L551.72-8.32L543.04-21.56L543.04-1.04Q543.04 0 542 0L542 0Q540.96 0 540.96-1.04L540.96-1.04L540.96-24.72Q540.96-25.76 542-25.76L542-25.76Q542.80-25.76 543.20-25.08L543.20-25.08L552.96-10.16L562.68-25.08Q563.08-25.76 563.92-25.76L563.92-25.76Z M584.96 0Q581.20 0 579.48-1.72Q577.76-3.44 577.76-7.16L577.76-7.16L577.76-11.68Q577.76-15.48 579.48-17.20Q581.20-18.92 584.96-18.88L584.96-18.88L588.24-18.88Q592.00-18.88 593.72-17.16Q595.44-15.44 595.44-11.68L595.44-11.68L595.44-7.20Q595.44-3.44 593.72-1.72Q592.00 0 588.24 0L588.24 0L584.96 0ZM584.96-2.08L588.24-2.08Q591.08-2.08 592.22-3.22Q593.36-4.36 593.36-7.20L593.36-7.20L593.36-11.68Q593.36-14.52 592.22-15.66Q591.08-16.80 588.24-16.80L588.24-16.80L584.96-16.80Q582.12-16.84 580.98-15.70Q579.84-14.56 579.84-11.68L579.84-11.68L579.84-7.16Q579.84-4.32 580.98-3.20Q582.12-2.08 584.96-2.08L584.96-2.08Z M618.84-18.92Q622.60-18.92 624.32-17.18Q626.04-15.44 626.04-11.72L626.04-11.72L626.04-7.20Q626.04-3.48 624.32-1.74Q622.60 0 618.84 0L618.84 0L617.32 0Q612.28 0 610.44-2.76L610.44-2.76L610.44-1.04Q610.44 0 609.40 0L609.40 0Q608.36 0 608.36-1.04L608.36-1.04L608.36-26.68Q608.36-27.72 609.40-27.72L609.40-27.72Q610.44-27.72 610.44-26.68L610.44-26.68L610.44-16.12Q612.28-18.92 617.32-18.92L617.32-18.92L618.84-18.92ZM623.96-7.20L623.96-11.72Q623.96-14.56 622.84-15.70Q621.72-16.84 618.84-16.84L618.84-16.84L617.32-16.84Q614.12-16.84 612.28-15.82Q610.44-14.80 610.44-12.84L610.44-12.84L610.44-6.24L610.44-6.04Q610.44-4.12 612.28-3.10Q614.12-2.08 617.32-2.08L617.32-2.08L618.84-2.08Q621.72-2.08 622.84-3.22Q623.96-4.36 623.96-7.20L623.96-7.20Z M640.00 0Q639.52 0 639.24-0.26Q638.96-0.52 638.96-1.04L638.96-1.04L638.96-17.84Q638.96-18.36 639.24-18.62Q639.52-18.88 640.00-18.88L640.00-18.88Q641.04-18.88 641.04-17.84L641.04-17.84L641.04-1.04Q641.04 0 640.00 0L640.00 0ZM639.56-22.52Q638.88-22.52 638.52-22.88Q638.16-23.24 638.16-23.92L638.16-23.92L638.16-24.80Q638.16-25.48 638.52-25.84Q638.88-26.20 639.56-26.20L639.56-26.20L640.48-26.20Q641.80-26.20 641.80-24.80L641.80-24.80L641.80-23.92Q641.80-22.52 640.48-22.52L640.48-22.52L639.56-22.52Z M660.00 0Q657.16 0 655.82-1.32Q654.48-2.64 654.48-5.44L654.48-5.44L654.48-26.68Q654.48-27.72 655.52-27.72L655.52-27.72Q656.56-27.72 656.56-26.68L656.56-26.68L656.56-5.44Q656.56-3.48 657.28-2.78Q658.00-2.08 659.96-2.08L659.96-2.08Q661.04-2.08 661.04-1.04L661.04-1.04Q661.04-0.52 660.76-0.26Q660.48 0 660.00 0L660.00 0Z M687.40-8.64L672.84-8.64L672.84-7.16Q672.84-4.32 673.98-3.20Q675.12-2.08 677.96-2.08L677.96-2.08L681.24-2.08Q683.80-2.08 684.94-2.74Q686.08-3.40 686.28-5L686.28-5Q686.48-6 687.36-6L687.36-6Q687.92-6 688.18-5.72Q688.44-5.44 688.36-4.92L688.36-4.92Q688.08-2.40 686.34-1.20Q684.60 0 681.24 0L681.24 0L677.96 0Q674.24 0 672.50-1.72Q670.76-3.44 670.76-7.16L670.76-7.16L670.76-11.68Q670.76-15.44 672.50-17.18Q674.24-18.92 677.96-18.88L677.96-18.88L681.24-18.88Q684.96-18.88 686.70-17.14Q688.44-15.40 688.44-11.68L688.44-11.68L688.44-9.68Q688.44-8.64 687.40-8.64L687.40-8.64ZM672.84-11.68L672.84-10.72L686.36-10.72L686.36-11.68Q686.36-14.56 685.24-15.68Q684.12-16.80 681.24-16.80L681.24-16.80L677.96-16.80Q675.08-16.84 673.96-15.72Q672.84-14.60 672.84-11.68L672.84-11.68Z"/></g>
</svg>
</g><g opacity="1" transform="rotate(0 83.0286 269.3879)">
<svg width="334.6638" height="40" x="83.0286" y="269.3879" version="1.1" preserveAspectRatio="none" viewBox="1.04 -27.72 231.92000000000002 27.72">
  <g transform="matrix(1 0 0 1 0 0)" class="companyName"><path id="id-D6z1nYkh11" d="M23.40-1.48Q23.52-1.20 23.52-0.96L23.52-0.96Q23.52-0.44 22.84-0.12L22.84-0.12Q22.60 0 22.32 0L22.32 0Q21.76 0 21.52-0.64L21.52-0.64L18.84-6.96L18.72-6.96L5.76-6.96L3.08-0.64Q2.80 0 2.20 0L2.20 0Q2 0 1.68-0.12L1.68-0.12Q1.04-0.36 1.04-1L1.04-1Q1.04-1.32 1.12-1.48L1.12-1.48L11.04-24.96Q11.36-25.76 12.24-25.76L12.24-25.76L12.32-25.76Q13.12-25.76 13.48-24.96L13.48-24.96L23.40-1.48ZM12.28-22.48L6.60-9.04L17.96-9.04L12.28-22.48Z M37.92-18.88Q41.68-18.88 43.40-17.14Q45.12-15.40 45.12-11.68L45.12-11.68L45.12-1.04Q45.12 0 44.08 0L44.08 0Q43.04 0 43.04-1.04L43.04-1.04L43.04-11.68Q43.04-14.56 41.92-15.68Q40.80-16.80 37.92-16.80L37.92-16.80L36.80-16.80Q33.64-16.80 31.88-15.80Q30.12-14.80 29.96-12.84L29.96-12.84Q29.96-12.64 29.92-12.56L29.92-12.56L29.92-1.04Q29.92 0 28.88 0L28.88 0Q27.84 0 27.84-1.04L27.84-1.04L27.84-17.84Q27.84-18.88 28.88-18.88L28.88-18.88Q29.92-18.88 29.92-17.84L29.92-17.84L29.92-15.92Q31.84-18.88 36.80-18.88L36.80-18.88L37.92-18.88Z M68.32-27.72Q69.36-27.72 69.36-26.68L69.36-26.68L69.36-1.04Q69.36 0 68.32 0L68.32 0Q67.28 0 67.28-1.04L67.28-1.04L67.28-2.72Q66.40-1.36 64.72-0.68Q63.04 0 60.40 0L60.40 0L58.88 0Q55.16 0 53.42-1.74Q51.68-3.48 51.68-7.20L51.68-7.20L51.68-11.68Q51.68-15.40 53.42-17.14Q55.16-18.88 58.88-18.88L58.88-18.88L67.28-18.88L67.28-26.68Q67.28-27.72 68.32-27.72L68.32-27.72ZM60.40-2.08Q63.60-2.08 65.44-3.10Q67.28-4.12 67.28-6.04L67.28-6.04L67.28-16.80L58.88-16.80Q56.00-16.80 54.88-15.66Q53.76-14.52 53.76-11.68L53.76-11.68L53.76-7.20Q53.76-4.32 54.90-3.20Q56.04-2.08 58.88-2.08L58.88-2.08L60.40-2.08Z M86.24-18.88Q87.28-18.88 87.28-17.84L87.28-17.84Q87.28-16.80 86.24-16.80L86.24-16.80Q82.64-16.80 80.68-15.16Q78.72-13.52 78.56-10.48L78.56-10.48Q78.56-10.28 78.52-10.20L78.52-10.20L78.52-1.04Q78.52 0 77.48 0L77.48 0Q76.44 0 76.44-1.04L76.44-1.04L76.44-17.84Q76.44-18.88 77.48-18.88L77.48-18.88Q78.52-18.88 78.52-17.84L78.52-17.84L78.52-14.64Q79.56-16.68 81.54-17.78Q83.52-18.88 86.24-18.88L86.24-18.88Z M106.80-8.64L92.24-8.64L92.24-7.16Q92.24-4.32 93.38-3.20Q94.52-2.08 97.36-2.08L97.36-2.08L100.64-2.08Q103.20-2.08 104.34-2.74Q105.48-3.40 105.68-5L105.68-5Q105.88-6 106.76-6L106.76-6Q107.32-6 107.58-5.72Q107.84-5.44 107.76-4.92L107.76-4.92Q107.48-2.40 105.74-1.20Q104 0 100.64 0L100.64 0L97.36 0Q93.64 0 91.90-1.72Q90.16-3.44 90.16-7.16L90.16-7.16L90.16-11.68Q90.16-15.44 91.90-17.18Q93.64-18.92 97.36-18.88L97.36-18.88L100.64-18.88Q104.36-18.88 106.10-17.14Q107.84-15.40 107.84-11.68L107.84-11.68L107.84-9.68Q107.84-8.64 106.80-8.64L106.80-8.64ZM92.24-11.68L92.24-10.72L105.76-10.72L105.76-11.68Q105.76-14.56 104.64-15.68Q103.52-16.80 100.64-16.80L100.64-16.80L97.36-16.80Q94.48-16.84 93.36-15.72Q92.24-14.60 92.24-11.68L92.24-11.68ZM98.20-21.36Q97.80-21.72 97.80-22.08L97.80-22.08Q97.80-22.40 98.04-22.76L98.04-22.76L101.48-26.84Q101.84-27.24 102.24-27.24L102.24-27.24Q102.60-27.24 102.88-26.96L102.88-26.96Q103.28-26.60 103.28-26.24L103.28-26.24Q103.28-25.92 103.04-25.56L103.04-25.56L99.60-21.48Q99.24-21.08 98.84-21.08L98.84-21.08Q98.48-21.08 98.20-21.36L98.20-21.36Z M144.40-25.76Q145.44-25.76 145.44-24.72L145.44-24.72L145.44-1.04Q145.44 0 144.40 0L144.40 0Q143.84 0 143.36-0.60L143.36-0.60L126.84-21.84L126.84-1.04Q126.84 0 125.80 0L125.80 0Q124.76 0 124.76-1.04L124.76-1.04L124.76-24.72Q124.76-25.76 125.80-25.76L125.80-25.76Q126.40-25.76 126.88-25.16L126.88-25.16L143.36-3.96L143.36-24.72Q143.36-25.76 144.40-25.76L144.40-25.76Z M159.56 0Q155.80 0 154.08-1.72Q152.36-3.44 152.36-7.16L152.36-7.16L152.36-11.68Q152.36-15.48 154.08-17.20Q155.80-18.92 159.56-18.88L159.56-18.88L162.84-18.88Q166.60-18.88 168.32-17.16Q170.04-15.44 170.04-11.68L170.04-11.68L170.04-7.20Q170.04-3.44 168.32-1.72Q166.60 0 162.84 0L162.84 0L159.56 0ZM159.56-2.08L162.84-2.08Q165.68-2.08 166.82-3.22Q167.96-4.36 167.96-7.20L167.96-7.20L167.96-11.68Q167.96-14.52 166.82-15.66Q165.68-16.80 162.84-16.80L162.84-16.80L159.56-16.80Q156.72-16.84 155.58-15.70Q154.44-14.56 154.44-11.68L154.44-11.68L154.44-7.16Q154.44-4.32 155.58-3.20Q156.72-2.08 159.56-2.08L159.56-2.08Z M187.44-18.92Q191.20-18.92 192.92-17.18Q194.64-15.44 194.64-11.72L194.64-11.72L194.64-7.20Q194.64-3.48 192.92-1.74Q191.20 0 187.44 0L187.44 0L185.92 0Q180.88 0 179.04-2.76L179.04-2.76L179.04-1.04Q179.04 0 178 0L178 0Q176.96 0 176.96-1.04L176.96-1.04L176.96-26.68Q176.96-27.72 178-27.72L178-27.72Q179.04-27.72 179.04-26.68L179.04-26.68L179.04-16.12Q180.88-18.92 185.92-18.92L185.92-18.92L187.44-18.92ZM192.56-7.20L192.56-11.72Q192.56-14.56 191.44-15.70Q190.32-16.84 187.44-16.84L187.44-16.84L185.92-16.84Q182.72-16.84 180.88-15.82Q179.04-14.80 179.04-12.84L179.04-12.84L179.04-6.24L179.04-6.04Q179.04-4.12 180.88-3.10Q182.72-2.08 185.92-2.08L185.92-2.08L187.44-2.08Q190.32-2.08 191.44-3.22Q192.56-4.36 192.56-7.20L192.56-7.20Z M211.36-18.88Q212.40-18.88 212.40-17.84L212.40-17.84Q212.40-16.80 211.36-16.80L211.36-16.80Q207.76-16.80 205.80-15.16Q203.84-13.52 203.68-10.48L203.68-10.48Q203.68-10.28 203.64-10.20L203.64-10.20L203.64-1.04Q203.64 0 202.60 0L202.60 0Q201.56 0 201.56-1.04L201.56-1.04L201.56-17.84Q201.56-18.88 202.60-18.88L202.60-18.88Q203.64-18.88 203.64-17.84L203.64-17.84L203.64-14.64Q204.68-16.68 206.66-17.78Q208.64-18.88 211.36-18.88L211.36-18.88Z M231.92-8.64L217.36-8.64L217.36-7.16Q217.36-4.32 218.50-3.20Q219.64-2.08 222.48-2.08L222.48-2.08L225.76-2.08Q228.32-2.08 229.46-2.74Q230.60-3.40 230.80-5L230.80-5Q231-6 231.88-6L231.88-6Q232.44-6 232.70-5.72Q232.96-5.44 232.88-4.92L232.88-4.92Q232.60-2.40 230.86-1.20Q229.12 0 225.76 0L225.76 0L222.48 0Q218.76 0 217.02-1.72Q215.28-3.44 215.28-7.16L215.28-7.16L215.28-11.68Q215.28-15.44 217.02-17.18Q218.76-18.92 222.48-18.88L222.48-18.88L225.76-18.88Q229.48-18.88 231.22-17.14Q232.96-15.40 232.96-11.68L232.96-11.68L232.96-9.68Q232.96-8.64 231.92-8.64L231.92-8.64ZM217.36-11.68L217.36-10.72L230.88-10.72L230.88-11.68Q230.88-14.56 229.76-15.68Q228.64-16.80 225.76-16.80L225.76-16.80L222.48-16.80Q219.60-16.84 218.48-15.72Q217.36-14.60 217.36-11.68L217.36-11.68Z"/></g>
</svg>
</g></svg></svg>